<svg xmlns="http://www.w3.org/2000/svg" xmlns:xlink="http://www.w3.org/1999/xlink" width="173" zoomAndPan="magnify" viewBox="0 0 129.75 30.000001" height="40" preserveAspectRatio="xMidYMid meet" version="1.0"><defs><g/><clipPath id="2025641ac2"><path d="M 4.875 2.234375 L 29.441406 2.234375 L 29.441406 26.800781 L 4.875 26.800781 Z M 4.875 2.234375 " clip-rule="nonzero"/></clipPath><clipPath id="c97b8a7f7f"><path d="M 17.15625 2.234375 C 23.941406 2.234375 29.441406 7.734375 29.441406 14.515625 C 29.441406 21.300781 23.941406 26.800781 17.15625 26.800781 C 10.375 26.800781 4.875 21.300781 4.875 14.515625 C 4.875 7.734375 10.375 2.234375 17.15625 2.234375 L 17.15625 7.144531 C 13.085938 7.144531 9.789062 10.445312 9.789062 14.515625 C 9.789062 18.585938 13.085938 21.886719 17.15625 21.886719 C 21.226562 21.886719 24.527344 18.585938 24.527344 14.515625 C 24.527344 10.445312 21.226562 7.144531 17.15625 7.144531 Z M 17.15625 2.234375 " clip-rule="nonzero"/></clipPath><clipPath id="03902394fc"><path d="M 7.464844 2.519531 L 29.535156 2.519531 L 29.535156 26.894531 L 7.464844 26.894531 Z M 7.464844 2.519531 " clip-rule="nonzero"/></clipPath><clipPath id="5eef7e5f45"><path d="M 20.230469 2.625 C 25.285156 3.929688 28.964844 8.289062 29.398438 13.492188 C 29.832031 18.699219 26.929688 23.609375 22.160156 25.734375 C 17.390625 27.859375 11.796875 26.738281 8.214844 22.9375 C 7.285156 21.949219 7.332031 20.394531 8.320312 19.464844 C 9.308594 18.535156 10.863281 18.582031 11.792969 19.566406 C 13.941406 21.851562 17.296875 22.523438 20.160156 21.246094 C 23.019531 19.972656 24.761719 17.027344 24.503906 13.902344 C 24.242188 10.78125 22.035156 8.164062 19 7.378906 C 18.152344 7.160156 17.480469 6.503906 17.246094 5.660156 C 17.011719 4.8125 17.246094 3.90625 17.863281 3.28125 C 18.476562 2.65625 19.378906 2.402344 20.230469 2.625 Z M 20.230469 2.625 " clip-rule="nonzero"/></clipPath></defs><g fill="#ffffff" fill-opacity="1"><g transform="translate(34.416838, 19.801584)"><g><path d="M 4.703125 -9.21875 C 5.785156 -9.21875 6.6875 -8.835938 7.40625 -8.078125 C 8.132812 -7.316406 8.5 -6.148438 8.5 -4.578125 C 8.5 -3.015625 8.132812 -1.832031 7.40625 -1.03125 C 6.6875 -0.226562 5.710938 0.171875 4.484375 0.171875 C 3.253906 0.171875 2.289062 -0.222656 1.59375 -1.015625 C 0.894531 -1.816406 0.546875 -2.984375 0.546875 -4.515625 C 0.546875 -5.347656 0.664062 -6.078125 0.90625 -6.703125 C 1.15625 -7.335938 1.476562 -7.828125 1.875 -8.171875 C 2.6875 -8.867188 3.628906 -9.21875 4.703125 -9.21875 Z M 2.25 -4.578125 C 2.25 -2.328125 3.03125 -1.203125 4.59375 -1.203125 C 5.425781 -1.203125 6.007812 -1.546875 6.34375 -2.234375 C 6.65625 -2.835938 6.8125 -3.582031 6.8125 -4.46875 C 6.8125 -5.257812 6.675781 -5.988281 6.40625 -6.65625 C 6.25 -7.007812 6.015625 -7.289062 5.703125 -7.5 C 5.390625 -7.71875 4.984375 -7.828125 4.484375 -7.828125 C 3.984375 -7.828125 3.550781 -7.660156 3.1875 -7.328125 C 2.832031 -7.003906 2.585938 -6.609375 2.453125 -6.140625 C 2.316406 -5.679688 2.25 -5.160156 2.25 -4.578125 Z M 2.25 -4.578125 "/></g></g></g><g fill="#ffffff" fill-opacity="1"><g transform="translate(43.460713, 19.801584)"><g><path d="M 0.4375 0 L 0.4375 -1.109375 L 0.890625 -1.140625 C 1.148438 -1.171875 1.28125 -1.300781 1.28125 -1.53125 L 1.28125 -7.859375 L 0.5 -7.90625 L 0.5 -9.0625 L 4.21875 -9.0625 C 5.269531 -9.0625 6.078125 -8.863281 6.640625 -8.46875 C 7.210938 -8.082031 7.5 -7.441406 7.5 -6.546875 C 7.5 -5.929688 7.335938 -5.421875 7.015625 -5.015625 C 6.691406 -4.617188 6.304688 -4.332031 5.859375 -4.15625 C 6.179688 -4.039062 6.441406 -3.765625 6.640625 -3.328125 L 7.609375 -1.1875 L 8.390625 -1.15625 L 8.390625 0 L 5.03125 0 L 5.03125 -1.109375 L 5.421875 -1.140625 C 5.628906 -1.171875 5.734375 -1.253906 5.734375 -1.390625 C 5.734375 -1.441406 5.71875 -1.503906 5.6875 -1.578125 L 5.046875 -2.9375 C 4.941406 -3.164062 4.828125 -3.328125 4.703125 -3.421875 C 4.585938 -3.515625 4.414062 -3.5625 4.1875 -3.5625 L 2.9375 -3.5625 L 2.9375 -1.203125 L 3.828125 -1.15625 L 3.828125 0 Z M 2.9375 -4.859375 L 4.125 -4.859375 C 5.238281 -4.859375 5.796875 -5.359375 5.796875 -6.359375 C 5.796875 -6.929688 5.648438 -7.300781 5.359375 -7.46875 C 5.066406 -7.644531 4.59375 -7.734375 3.9375 -7.734375 L 2.9375 -7.734375 Z M 2.9375 -4.859375 "/></g></g></g><g fill="#ffffff" fill-opacity="1"><g transform="translate(51.987016, 19.801584)"><g><path d="M 7.6875 -3.171875 L 7.6875 -0.703125 C 6.84375 -0.128906 5.789062 0.15625 4.53125 0.15625 C 3.28125 0.15625 2.300781 -0.234375 1.59375 -1.015625 C 0.894531 -1.796875 0.546875 -2.960938 0.546875 -4.515625 C 0.546875 -5.191406 0.632812 -5.800781 0.8125 -6.34375 C 0.988281 -6.894531 1.21875 -7.347656 1.5 -7.703125 C 1.789062 -8.054688 2.125 -8.347656 2.5 -8.578125 C 3.226562 -9.003906 4.050781 -9.21875 4.96875 -9.21875 C 5.894531 -9.21875 6.757812 -9.035156 7.5625 -8.671875 L 7.5625 -6.34375 L 6.171875 -6.25 L 6.171875 -7.3125 C 6.171875 -7.445312 6.15625 -7.546875 6.125 -7.609375 C 6.019531 -7.785156 5.601562 -7.875 4.875 -7.875 C 3.125 -7.875 2.25 -6.789062 2.25 -4.625 C 2.25 -2.332031 3.039062 -1.1875 4.625 -1.1875 C 5.25 -1.1875 5.726562 -1.296875 6.0625 -1.515625 L 6.0625 -3.546875 L 6.046875 -3.546875 L 5 -3.578125 L 5 -4.734375 L 8.390625 -4.734375 L 8.390625 -3.65625 L 8.078125 -3.625 C 7.929688 -3.601562 7.828125 -3.5625 7.765625 -3.5 C 7.710938 -3.445312 7.6875 -3.335938 7.6875 -3.171875 Z M 7.6875 -3.171875 "/></g></g></g><g fill="#ffffff" fill-opacity="1"><g transform="translate(60.717622, 19.801584)"><g><path d="M 0.921875 -1.53125 L 3.125 -7.875 L 2.265625 -7.953125 L 2.265625 -9.0625 L 5.375 -9.0625 L 8.15625 -1.203125 L 8.171875 -1.203125 L 8.953125 -1.15625 L 8.953125 0 L 5.4375 0 L 5.4375 -1.109375 L 5.953125 -1.140625 C 6.109375 -1.160156 6.210938 -1.195312 6.265625 -1.25 C 6.316406 -1.300781 6.320312 -1.398438 6.28125 -1.546875 L 6 -2.390625 L 2.8125 -2.390625 L 2.390625 -1.203125 L 3.21875 -1.15625 L 3.21875 0 L 0.0625 0 L 0.0625 -1.109375 L 0.515625 -1.140625 C 0.703125 -1.160156 0.835938 -1.289062 0.921875 -1.53125 Z M 4.40625 -7.53125 L 3.140625 -3.65625 L 5.671875 -3.65625 L 4.4375 -7.53125 Z M 4.40625 -7.53125 "/></g></g></g><g fill="#ffffff" fill-opacity="1"><g transform="translate(69.73425, 19.801584)"><g><path d="M 0.4375 0 L 0.4375 -1.109375 L 0.921875 -1.140625 C 1.160156 -1.160156 1.28125 -1.289062 1.28125 -1.53125 L 1.28125 -7.859375 L 0.5 -7.90625 L 0.5 -9.0625 L 2.953125 -9.0625 L 6.8125 -2.8125 L 6.84375 -2.8125 L 6.84375 -7.859375 L 5.9375 -7.90625 L 5.9375 -9.0625 L 9.265625 -9.0625 L 9.265625 -7.953125 L 8.78125 -7.921875 C 8.5625 -7.898438 8.453125 -7.757812 8.453125 -7.5 L 8.453125 0 L 6.859375 0 L 2.921875 -6.34375 L 2.890625 -6.34375 L 2.890625 -1.203125 L 3.78125 -1.15625 L 3.78125 0 Z M 0.4375 0 "/></g></g></g><g fill="#ffffff" fill-opacity="1"><g transform="translate(79.336555, 19.801584)"><g><path d="M 1.28125 -1.59375 L 1.28125 -7.859375 L 0.5 -7.90625 L 0.5 -9.0625 L 3.796875 -9.0625 L 3.796875 -7.953125 L 3.359375 -7.921875 C 3.085938 -7.890625 2.953125 -7.742188 2.953125 -7.484375 L 2.953125 -1.203125 L 3.734375 -1.15625 L 3.734375 0 L 0.4375 0 L 0.4375 -1.109375 L 0.890625 -1.140625 C 1.023438 -1.160156 1.125 -1.195312 1.1875 -1.25 C 1.25 -1.3125 1.28125 -1.425781 1.28125 -1.59375 Z M 1.28125 -1.59375 "/></g></g></g><g fill="#ffffff" fill-opacity="1"><g transform="translate(83.517977, 19.801584)"><g><path d="M 6.5 -7.953125 L 2.34375 -1.296875 L 4.984375 -1.296875 C 5.210938 -1.296875 5.328125 -1.441406 5.328125 -1.734375 L 5.328125 -2.6875 L 6.71875 -2.59375 L 6.71875 0 L 0.453125 0 L 0.453125 -1.125 L 4.5625 -7.765625 L 2.296875 -7.765625 C 2.054688 -7.765625 1.9375 -7.625 1.9375 -7.34375 L 1.9375 -6.796875 L 0.546875 -6.890625 L 0.546875 -9.0625 L 6.5 -9.0625 Z M 6.5 -7.953125 "/></g></g></g><g fill="#ffffff" fill-opacity="1"><g transform="translate(90.777584, 19.801584)"><g><path d="M 6.5 -7.953125 L 2.34375 -1.296875 L 4.984375 -1.296875 C 5.210938 -1.296875 5.328125 -1.441406 5.328125 -1.734375 L 5.328125 -2.6875 L 6.71875 -2.59375 L 6.71875 0 L 0.453125 0 L 0.453125 -1.125 L 4.5625 -7.765625 L 2.296875 -7.765625 C 2.054688 -7.765625 1.9375 -7.625 1.9375 -7.34375 L 1.9375 -6.796875 L 0.546875 -6.890625 L 0.546875 -9.0625 L 6.5 -9.0625 Z M 6.5 -7.953125 "/></g></g></g><g fill="#ffffff" fill-opacity="1"><g transform="translate(98.037192, 19.801584)"><g><path d="M 6.9375 0 L 0.46875 0 L 0.46875 -1.109375 L 0.90625 -1.140625 C 1.175781 -1.171875 1.3125 -1.300781 1.3125 -1.53125 L 1.3125 -7.859375 L 0.53125 -7.90625 L 0.53125 -9.0625 L 6.765625 -9.0625 L 6.765625 -6.796875 L 5.375 -6.703125 L 5.375 -7.25 C 5.375 -7.40625 5.351562 -7.515625 5.3125 -7.578125 C 5.269531 -7.640625 5.160156 -7.671875 4.984375 -7.671875 L 2.96875 -7.671875 L 2.96875 -5.34375 L 6.125 -5.34375 L 6.125 -3.953125 L 2.96875 -3.953125 L 2.96875 -1.40625 L 5.15625 -1.40625 C 5.320312 -1.40625 5.425781 -1.4375 5.46875 -1.5 C 5.519531 -1.570312 5.546875 -1.6875 5.546875 -1.84375 L 5.546875 -2.515625 L 6.9375 -2.421875 Z M 6.9375 0 "/></g></g></g><g fill="#ffffff" fill-opacity="1"><g transform="translate(105.514727, 19.801584)"><g><path d="M 0.40625 -3.296875 L 0.40625 -4.546875 L 3.984375 -4.546875 L 3.984375 -3.296875 Z M 0.40625 -3.296875 "/></g></g></g><g fill="#ffffff" fill-opacity="1"><g transform="translate(109.900453, 19.801584)"><g><path d="M 0.921875 -1.53125 L 3.125 -7.875 L 2.265625 -7.953125 L 2.265625 -9.0625 L 5.375 -9.0625 L 8.15625 -1.203125 L 8.171875 -1.203125 L 8.953125 -1.15625 L 8.953125 0 L 5.4375 0 L 5.4375 -1.109375 L 5.953125 -1.140625 C 6.109375 -1.160156 6.210938 -1.195312 6.265625 -1.25 C 6.316406 -1.300781 6.320312 -1.398438 6.28125 -1.546875 L 6 -2.390625 L 2.8125 -2.390625 L 2.390625 -1.203125 L 3.21875 -1.15625 L 3.21875 0 L 0.0625 0 L 0.0625 -1.109375 L 0.515625 -1.140625 C 0.703125 -1.160156 0.835938 -1.289062 0.921875 -1.53125 Z M 4.40625 -7.53125 L 3.140625 -3.65625 L 5.671875 -3.65625 L 4.4375 -7.53125 Z M 4.40625 -7.53125 "/></g></g></g><g fill="#ffffff" fill-opacity="1"><g transform="translate(118.917081, 19.801584)"><g><path d="M 1.28125 -1.59375 L 1.28125 -7.859375 L 0.5 -7.90625 L 0.5 -9.0625 L 3.796875 -9.0625 L 3.796875 -7.953125 L 3.359375 -7.921875 C 3.085938 -7.890625 2.953125 -7.742188 2.953125 -7.484375 L 2.953125 -1.203125 L 3.734375 -1.15625 L 3.734375 0 L 0.4375 0 L 0.4375 -1.109375 L 0.890625 -1.140625 C 1.023438 -1.160156 1.125 -1.195312 1.1875 -1.25 C 1.25 -1.3125 1.28125 -1.425781 1.28125 -1.59375 Z M 1.28125 -1.59375 "/></g></g></g><g clip-path="url(#2025641ac2)"><g clip-path="url(#c97b8a7f7f)"><path fill="#254d14" d="M 4.875 2.234375 L 29.441406 2.234375 L 29.441406 26.800781 L 4.875 26.800781 Z M 4.875 2.234375 " fill-opacity="1" fill-rule="nonzero"/></g></g><g clip-path="url(#03902394fc)"><g clip-path="url(#5eef7e5f45)"><path fill="#55b02e" d="M 4.875 2.234375 L 29.441406 2.234375 L 29.441406 26.800781 L 4.875 26.800781 Z M 4.875 2.234375 " fill-opacity="1" fill-rule="nonzero"/></g></g></svg>